<?xml version="1.0" encoding="UTF-8" standalone="no"?>
<svg
   xmlns:dc="http://purl.org/dc/elements/1.1/"
   xmlns:cc="http://creativecommons.org/ns#"
   xmlns:rdf="http://www.w3.org/1999/02/22-rdf-syntax-ns#"
   xmlns:svg="http://www.w3.org/2000/svg"
   xmlns="http://www.w3.org/2000/svg"
   xmlns:sodipodi="http://sodipodi.sourceforge.net/DTD/sodipodi-0.dtd"
   xmlns:inkscape="http://www.inkscape.org/namespaces/inkscape"
   clip-rule="evenodd"
   fill-rule="evenodd"
   height="177.17"
   image-rendering="optimizeQuality"
   shape-rendering="geometricPrecision"
   viewBox="0 0 50 50"
   width="177.17"
   version="1.1"
   id="svg18"
   sodipodi:docname="b+F.svg"
   inkscape:version="1.0.1 (3bc2e813f5, 2020-09-07)">
  <metadata
     id="metadata24">
    <rdf:RDF>
      <cc:Work
         rdf:about="">
        <dc:format>image/svg+xml</dc:format>
        <dc:type
           rdf:resource="http://purl.org/dc/dcmitype/StillImage" />
        <dc:title></dc:title>
      </cc:Work>
    </rdf:RDF>
  </metadata>
  <defs
     id="defs22" />
  <sodipodi:namedview
     pagecolor="#ffffff"
     bordercolor="#666666"
     borderopacity="1"
     objecttolerance="10"
     gridtolerance="10"
     guidetolerance="10"
     inkscape:pageopacity="0"
     inkscape:pageshadow="2"
     inkscape:window-width="1920"
     inkscape:window-height="1009"
     id="namedview20"
     showgrid="false"
     inkscape:zoom="1"
     inkscape:cx="88.584999"
     inkscape:cy="88.584999"
     inkscape:window-x="-8"
     inkscape:window-y="-8"
     inkscape:window-maximized="1"
     inkscape:current-layer="svg18" />
  <g
     transform="matrix(1.05530830249 0 0 1.05530830249 -71.02923819617 -24.28420969664)"
     id="g16">
    <g
       transform="matrix(.99867819 0 0 1.060145 .120217 -3.965767)"
       id="g12">
      <path
         d="m84.568171 35.093828-6.217144.149811c-6.203086 2.383935-6.962587 5.934352-4.793947 10.112228-.05331-4.629564 3.609449-3.313402 6.366959-3.445648 9.559786 5.46999 4.25599 14.805717-.599244 18.426723l4.419419.449433-.524338 3.07112 4.269605-2.92131 2.696594 3.520551 3.895081-2.92131 1.573012 2.621691 2.022444-2.696597c1.307039 1.013938 2.064854 2.354644 2.627738 3.526604l1.86659-3.226981c1.23104.812023 1.87638 2.044599 2.8464 3.07112v-4.119794l4.41942 2.621688c.57264-16.897498-1.12516-28.07245-13.932403-31.759881-2.710707-.060144-5.491501-.344569-7.865064.674147z"
         fill="#1f1a17"
         stroke="#1f1a17"
         stroke-width="1.693289"
         id="path2" />
      <g
         fill="#fff"
         stroke="#fff"
         id="g10">
        <path
           d="m83.103812 35.805085c-.02515 1.008854.490503 1.148881 1.112288 1.324152"
           stroke-width="1.298001"
           id="path4" />
        <path
           d="m91.413755 41.973846a2.5158896 1.8273305 0 0 1 -1.307932 1.602928 2.5158896 1.8273305 0 0 1 -2.563889-.0637 2.5158896 1.8273305 0 0 1 -1.154078-1.664092l2.510009.124859z"
           fill-opacity=".984314"
           stroke-linecap="square"
           stroke-linejoin="bevel"
           stroke-opacity=".984314"
           stroke-width="1.693289"
           transform="matrix(.99847255 -.05525006 .05525006 .99847255 0 0)"
           id="path6" />
        <path
           d="m93.644067 36.864407 3.760592-.423729"
           stroke-width="1.693289"
           id="path8" />
      </g>
    </g>
    <path
       d="m79.742662 41.383025c.310502.194594.639867.423478 1.021127.70652l10.764209 2.445766.131338-.769265z"
       fill="#fff"
       id="path14" />
  </g>
  <g
     id="g874"
     transform="matrix(1.1111108,0,0,1.1111111,-2.2328518e-5,-3.0722626e-5)">
    <g
       id="g893"
       transform="translate(-1.3643074,-0.70415497)">
      <circle
         style="fill:#fffffc;fill-opacity:1;stroke:none;stroke-width:2.22732;stroke-linecap:round;stroke-miterlimit:4;stroke-dasharray:none;stroke-dashoffset:0.4;stroke-opacity:1;paint-order:fill markers stroke"
         id="path867"
         cx="37.114307"
         cy="36.454155"
         r="7.75" />
      <circle
         style="fill:#000000;fill-opacity:1;stroke:none;stroke-width:2.15547;stroke-linecap:round;stroke-miterlimit:4;stroke-dasharray:none;stroke-dashoffset:0.4;stroke-opacity:1;paint-order:fill markers stroke"
         id="path867-0"
         cx="37.114307"
         cy="36.454155"
         r="7.5" />
      <circle
         style="fill:#ffdd55;fill-opacity:1;stroke:none;stroke-width:1.86807;stroke-linecap:round;stroke-miterlimit:4;stroke-dasharray:none;stroke-dashoffset:0.4;stroke-opacity:1;paint-order:fill markers stroke"
         id="path867-3"
         cx="37.114307"
         cy="36.454155"
         r="6.5" />
    </g>
    <g
       id="g864"
       transform="translate(-2.7002445,17.32398)">
      <path
         id="path859"
         style="fill:none;fill-opacity:1;stroke:#000000;stroke-width:2.5;stroke-linecap:butt;stroke-linejoin:miter;stroke-miterlimit:4;stroke-dasharray:none;stroke-opacity:1"
         d="m 38.7,14.426 v 8.5 m -4.25,-4.25 h 8.5" />
      <path
         id="path848"
         style="fill:none;fill-opacity:1;stroke:#000000;stroke-width:2.5;stroke-linecap:butt;stroke-linejoin:miter;stroke-miterlimit:4;stroke-dasharray:none;stroke-opacity:1"
         d="m 38.200489,13.926039 v 8.5 m -4.25,-4.25 h 8.5" />
      <path
         id="path846"
         style="fill:none;fill-opacity:1;stroke:#ffffff;stroke-width:2;stroke-linecap:butt;stroke-linejoin:miter;stroke-miterlimit:4;stroke-dasharray:none;stroke-opacity:1"
         d="m 38.200489,14.176039 v 8 m -4,-4 h 8" />
    </g>
  </g>
</svg>
