<?xml version="1.0" encoding="UTF-8" standalone="no"?>
<svg
   xmlns:dc="http://purl.org/dc/elements/1.1/"
   xmlns:cc="http://creativecommons.org/ns#"
   xmlns:rdf="http://www.w3.org/1999/02/22-rdf-syntax-ns#"
   xmlns:svg="http://www.w3.org/2000/svg"
   xmlns="http://www.w3.org/2000/svg"
   xmlns:sodipodi="http://sodipodi.sourceforge.net/DTD/sodipodi-0.dtd"
   xmlns:inkscape="http://www.inkscape.org/namespaces/inkscape"
   version="1.1"
   width="45"
   height="45"
   id="svg4064"
   sodipodi:docname="b+H.svg"
   inkscape:version="1.0.1 (3bc2e813f5, 2020-09-07)">
  <metadata
     id="metadata18">
    <rdf:RDF>
      <cc:Work
         rdf:about="">
        <dc:format>image/svg+xml</dc:format>
        <dc:type
           rdf:resource="http://purl.org/dc/dcmitype/StillImage" />
        <dc:title></dc:title>
      </cc:Work>
    </rdf:RDF>
  </metadata>
  <defs
     id="defs4068" />
  <sodipodi:namedview
     id="namedview4066"
     pagecolor="#ffffff"
     bordercolor="#000000"
     borderopacity="0.25"
     inkscape:showpageshadow="2"
     inkscape:pageopacity="0.0"
     inkscape:pagecheckerboard="0"
     inkscape:deskcolor="#d1d1d1"
     showgrid="false"
     inkscape:zoom="18.177778"
     inkscape:cx="22.5"
     inkscape:cy="22.5"
     inkscape:window-width="1920"
     inkscape:window-height="1009"
     inkscape:window-x="-8"
     inkscape:window-y="-8"
     inkscape:window-maximized="1"
     inkscape:current-layer="svg4064"
     inkscape:document-rotation="0" />
  <g
     style="opacity:1;fill:none;fill-opacity:1;fill-rule:evenodd;stroke:#000000;stroke-width:1.5;stroke-linecap:round;stroke-linejoin:round;stroke-miterlimit:4;stroke-dasharray:none;stroke-opacity:1"
     transform="translate(0,0.3)"
     id="g4062">
    <path
       d="m 22,10 c 10.5,1 16.5,8 16,29 H 15 c 0,-9 10,-6.5 8,-21"
       style="fill:#000000;stroke:#000000"
       id="path4052" />
    <path
       d="m 24,18 c 0.38,2.91 -5.55,7.37 -8,9 -3,2 -2.82,4.34 -5,4 -1.042,-0.94 1.41,-3.04 0,-3 -1,0 0.19,1.23 -1,2 -1,0 -4.003,1 -4,-4 0,-2 6,-12 6,-12 0,0 1.89,-1.9 2,-3.5 -0.73,-0.994 -0.5,-2 -0.5,-3 1,-1 3,2.5 3,2.5 h 2 c 0,0 0.78,-1.992 2.5,-3 1,0 1,3 1,3"
       style="fill:#000000;stroke:#000000"
       id="path4054" />
    <path
       d="m 9.5,25.5 a 0.5,0.5 0 1 1 -1,0 0.5,0.5 0 1 1 1,0 z"
       style="fill:#ffffff;stroke:#ffffff"
       id="path4056" />
    <path
       d="m 15,15.5 a 0.5,1.5 0 1 1 -1,0 0.5,1.5 0 1 1 1,0 z"
       transform="matrix(0.866,0.5,-0.5,0.866,9.693,-5.173)"
       style="fill:#ffffff;stroke:#ffffff"
       id="path4058" />
    <path
       d="M 24.55,10.4 24.1,11.85 24.6,12 c 3.15,1 5.65,2.49 7.9,6.75 2.25,4.26 3.25,10.31 2.75,20.25 l -0.05,0.5 h 2.25 L 37.5,39 C 38,28.94 36.62,22.15 34.25,17.66 31.88,13.17 28.46,11.02 25.06,10.5 Z"
       style="fill:#ffffff;stroke:none"
       id="path4060" />
  </g>
  <g
     id="g874">
    <g
       id="g893"
       transform="translate(-1.3643074,-0.70415497)">
      <circle
         style="fill:#fffffc;fill-opacity:1;stroke:none;stroke-width:2.22732;stroke-linecap:round;stroke-miterlimit:4;stroke-dasharray:none;stroke-dashoffset:0.4;stroke-opacity:1;paint-order:fill markers stroke"
         id="path867"
         cx="37.114307"
         cy="36.454155"
         r="7.75" />
      <circle
         style="fill:#000000;fill-opacity:1;stroke:none;stroke-width:2.15547;stroke-linecap:round;stroke-miterlimit:4;stroke-dasharray:none;stroke-dashoffset:0.4;stroke-opacity:1;paint-order:fill markers stroke"
         id="path867-0"
         cx="37.114307"
         cy="36.454155"
         r="7.5" />
      <circle
         style="fill:#ffdd55;fill-opacity:1;stroke:none;stroke-width:1.86807;stroke-linecap:round;stroke-miterlimit:4;stroke-dasharray:none;stroke-dashoffset:0.4;stroke-opacity:1;paint-order:fill markers stroke"
         id="path867-3"
         cx="37.114307"
         cy="36.454155"
         r="6.5" />
    </g>
    <g
       id="g864"
       transform="translate(-2.7002445,17.32398)">
      <path
         id="path859"
         style="fill:none;fill-opacity:1;stroke:#000000;stroke-width:2.5;stroke-linecap:butt;stroke-linejoin:miter;stroke-miterlimit:4;stroke-dasharray:none;stroke-opacity:1"
         d="m 38.7,14.426 v 8.5 m -4.25,-4.25 h 8.5" />
      <path
         id="path848"
         style="fill:none;fill-opacity:1;stroke:#000000;stroke-width:2.5;stroke-linecap:butt;stroke-linejoin:miter;stroke-miterlimit:4;stroke-dasharray:none;stroke-opacity:1"
         d="m 38.200489,13.926039 v 8.5 m -4.25,-4.25 h 8.5" />
      <path
         id="path846"
         style="fill:none;fill-opacity:1;stroke:#ffffff;stroke-width:2;stroke-linecap:butt;stroke-linejoin:miter;stroke-miterlimit:4;stroke-dasharray:none;stroke-opacity:1"
         d="m 38.200489,14.176039 v 8 m -4,-4 h 8" />
    </g>
  </g>
</svg>
