<?xml version="1.0" encoding="UTF-8" standalone="no"?>
<svg
   xmlns:dc="http://purl.org/dc/elements/1.1/"
   xmlns:cc="http://creativecommons.org/ns#"
   xmlns:rdf="http://www.w3.org/1999/02/22-rdf-syntax-ns#"
   xmlns:svg="http://www.w3.org/2000/svg"
   xmlns="http://www.w3.org/2000/svg"
   xmlns:sodipodi="http://sodipodi.sourceforge.net/DTD/sodipodi-0.dtd"
   xmlns:inkscape="http://www.inkscape.org/namespaces/inkscape"
   version="1.1"
   width="45"
   height="45"
   id="svg6901"
   sodipodi:docname="w+S.svg"
   inkscape:version="1.0.1 (3bc2e813f5, 2020-09-07)">
  <metadata
     id="metadata18">
    <rdf:RDF>
      <cc:Work
         rdf:about="">
        <dc:format>image/svg+xml</dc:format>
        <dc:type
           rdf:resource="http://purl.org/dc/dcmitype/StillImage" />
      </cc:Work>
    </rdf:RDF>
  </metadata>
  <defs
     id="defs6905" />
  <sodipodi:namedview
     id="namedview6903"
     pagecolor="#ffffff"
     bordercolor="#000000"
     borderopacity="0.25"
     inkscape:showpageshadow="2"
     inkscape:pageopacity="0.0"
     inkscape:pagecheckerboard="0"
     inkscape:deskcolor="#d1d1d1"
     showgrid="false"
     inkscape:zoom="18.177778"
     inkscape:cx="21.179707"
     inkscape:cy="26.928484"
     inkscape:window-width="1920"
     inkscape:window-height="1009"
     inkscape:window-x="-8"
     inkscape:window-y="-8"
     inkscape:window-maximized="1"
     inkscape:current-layer="svg6901"
     inkscape:document-rotation="0" />
  <g
     style="opacity:1; fill:none; fill-rule:evenodd; fill-opacity:1; stroke:#000000; stroke-width:1.5; stroke-linecap:round; stroke-linejoin:round; stroke-miterlimit:4; stroke-dasharray:none; stroke-opacity:1;"
     transform="translate(0,0.6)"
     id="g6899">&gt;
    <g
   style="fill:#ffffff; stroke:#000000; stroke-linecap:butt;"
   id="g6895">
  <path
     d="M 9,36 C 12.39,35.03 19.11,36.43 22.5,34 C 25.89,36.43 32.61,35.03 36,36 C 36,36 37.65,36.54 39,38 C 38.32,38.97 37.35,38.99 36,38.5 C 32.61,37.53 25.89,38.96 22.5,37.5 C 19.11,38.96 12.39,37.53 9,38.5 C 7.65,38.99 6.68,38.97 6,38 C 7.35,36.54 9,36 9,36 z"
     id="path6889" />
  <path
     d="M 15,32 C 17.5,34.5 27.5,34.5 30,32 C 30.5,30.5 30,30 30,30 C 30,27.5 27.5,26 27.5,26 C 33,24.5 33.5,14.5 22.5,10.5 C 11.5,14.5 12,24.5 17.5,26 C 17.5,26 15,27.5 15,30 C 15,30 14.5,30.5 15,32 z"
     id="path6891" />
  <path
     d="M 25 8 A 2.5 2.5 0 1 1  20,8 A 2.5 2.5 0 1 1  25 8 z"
     id="path6893" />
</g>
<path
   d="M 17.5,26 L 27.5,26 M 15,30 L 30,30 M 22.5,15.5 L 22.5,20.5 M 20,18 L 25,18"
   style="fill:none; stroke:#000000; stroke-linejoin:miter;"
   id="path6897" />
</g>
  <g
     id="g874">
    <g
       id="g893"
       transform="translate(-1.3643074,-0.70415497)">
      <circle
         style="fill:#fffffc;fill-opacity:1;stroke:none;stroke-width:2.22732;stroke-linecap:round;stroke-miterlimit:4;stroke-dasharray:none;stroke-dashoffset:0.4;stroke-opacity:1;paint-order:fill markers stroke"
         id="path867"
         cx="37.114307"
         cy="36.454155"
         r="7.75" />
      <circle
         style="fill:#000000;fill-opacity:1;stroke:none;stroke-width:2.15547;stroke-linecap:round;stroke-miterlimit:4;stroke-dasharray:none;stroke-dashoffset:0.4;stroke-opacity:1;paint-order:fill markers stroke"
         id="path867-0"
         cx="37.114307"
         cy="36.454155"
         r="7.5" />
      <circle
         style="fill:#ffdd55;fill-opacity:1;stroke:none;stroke-width:1.86807;stroke-linecap:round;stroke-miterlimit:4;stroke-dasharray:none;stroke-dashoffset:0.4;stroke-opacity:1;paint-order:fill markers stroke"
         id="path867-3"
         cx="37.114307"
         cy="36.454155"
         r="6.5" />
    </g>
    <g
       id="g864"
       transform="translate(-2.7002445,17.32398)">
      <path
         id="path859"
         style="fill:none;fill-opacity:1;stroke:#000000;stroke-width:2.5;stroke-linecap:butt;stroke-linejoin:miter;stroke-miterlimit:4;stroke-dasharray:none;stroke-opacity:1"
         d="m 38.7,14.426 v 8.5 m -4.25,-4.25 h 8.5" />
      <path
         id="path848"
         style="fill:none;fill-opacity:1;stroke:#000000;stroke-width:2.5;stroke-linecap:butt;stroke-linejoin:miter;stroke-miterlimit:4;stroke-dasharray:none;stroke-opacity:1"
         d="m 38.200489,13.926039 v 8.5 m -4.25,-4.25 h 8.5" />
      <path
         id="path846"
         style="fill:none;fill-opacity:1;stroke:#ffffff;stroke-width:2;stroke-linecap:butt;stroke-linejoin:miter;stroke-miterlimit:4;stroke-dasharray:none;stroke-opacity:1"
         d="m 38.200489,14.176039 v 8 m -4,-4 h 8" />
    </g>
  </g>
</svg>
